<svg width="256" height="48" viewBox="0 0 256 48" fill="none" xmlns="http://www.w3.org/2000/svg">
<path fill-rule="evenodd" clip-rule="evenodd" d="M23.8996 48C36.2434 48 46.4106 38.6807 47.7495 26.6939H38.3467C37.0815 33.5225 31.0944 38.6939 23.8996 38.6939C16.7047 38.6939 10.7177 33.5225 9.45243 26.6939H0.0496566C1.38853 38.6807 11.5558 48 23.8996 48ZM38.4289 21.796H47.7992C46.6865 9.57422 36.4111 0 23.8996 0C11.3881 0 1.11272 9.57422 0 21.796H9.37024C10.4336 14.7264 16.5336 9.30615 23.8996 9.30615C31.2655 9.30615 37.3655 14.7264 38.4289 21.796ZM87.3011 20.8182H95.1989C95.3409 19.0095 95.1657 17.4044 94.6733 16.0028C94.1809 14.6013 93.4138 13.4223 92.3722 12.4659C91.34 11.5 90.0663 10.7661 88.5511 10.2642C87.0455 9.76231 85.3409 9.51136 83.4375 9.51136C80.9186 9.51136 78.5417 10.0559 76.3068 11.1449C74.072 12.2339 72.1733 13.8532 70.6108 16.0028C69.0483 18.1525 68.0019 20.8182 67.4716 24C66.9413 27.2955 67.1165 30.089 67.9972 32.3807C68.8873 34.6723 70.3172 36.4148 72.2869 37.608C74.2661 38.8011 76.6193 39.3977 79.3466 39.3977C81.4299 39.3977 83.3049 39.0663 84.9716 38.4034C86.6383 37.7405 88.0871 36.8741 89.3182 35.804C90.5492 34.7244 91.553 33.5455 92.3295 32.267C93.1061 30.9792 93.6458 29.7197 93.9489 28.4886H85.9943C85.7955 29.0947 85.5066 29.6487 85.1278 30.1506C84.7585 30.643 84.3087 31.0691 83.7784 31.429C83.2576 31.7794 82.661 32.0492 81.9886 32.2386C81.3258 32.428 80.5966 32.5227 79.8011 32.5227C78.608 32.5227 77.6373 32.2434 76.8892 31.6847C76.1506 31.1259 75.6534 30.2831 75.3977 29.1562C75.1515 28.0294 75.161 26.6136 75.4261 24.9091C75.7292 23.1477 76.2405 21.6326 76.9602 20.3636C77.6799 19.0852 78.5843 18.1051 79.6733 17.4233C80.7623 16.732 81.9981 16.3864 83.3807 16.3864C84.1004 16.3864 84.7206 16.4905 85.2415 16.6989C85.7623 16.9072 86.1837 17.2102 86.5057 17.608C86.8277 17.9962 87.0549 18.4602 87.1875 19C87.3201 19.5398 87.358 20.1458 87.3011 20.8182ZM100.515 37.9915C102.049 38.929 104 39.3977 106.367 39.3977C108.735 39.3977 110.837 38.929 112.674 37.9915C114.521 37.0445 116.036 35.7282 117.219 34.0426C118.403 32.3475 119.18 30.3826 119.549 28.1477C119.918 25.9129 119.79 23.9527 119.165 22.267C118.55 20.572 117.475 19.2557 115.941 18.3182C114.416 17.3712 112.475 16.8977 110.117 16.8977C107.74 16.8977 105.629 17.3712 103.782 18.3182C101.935 19.2557 100.425 20.572 99.2507 22.267C98.0765 23.9527 97.3047 25.9129 96.9354 28.1477C96.566 30.3826 96.6892 32.3475 97.3047 34.0426C97.9202 35.7282 98.9903 37.0445 100.515 37.9915ZM109.194 32.9347C108.635 33.3797 108.015 33.6023 107.333 33.6023C106.651 33.6023 106.097 33.3797 105.671 32.9347C105.255 32.4896 104.98 31.8551 104.847 31.0312C104.724 30.2074 104.757 29.2273 104.947 28.0909C105.136 26.9451 105.43 25.965 105.827 25.1506C106.225 24.3267 106.708 23.6922 107.276 23.2472C107.844 22.8021 108.469 22.5795 109.151 22.5795C109.833 22.5795 110.382 22.8021 110.799 23.2472C111.216 23.6922 111.49 24.3267 111.623 25.1506C111.755 25.965 111.727 26.9451 111.538 28.0909C111.348 29.2273 111.05 30.2074 110.643 31.0312C110.245 31.8551 109.762 32.4896 109.194 32.9347ZM125.515 37.9915C127.049 38.929 129 39.3977 131.367 39.3977C133.735 39.3977 135.837 38.929 137.674 37.9915C139.521 37.0445 141.036 35.7282 142.219 34.0426C143.403 32.3475 144.18 30.3826 144.549 28.1477C144.918 25.9129 144.79 23.9527 144.165 22.267C143.55 20.572 142.475 19.2557 140.941 18.3182C139.416 17.3712 137.475 16.8977 135.117 16.8977C132.74 16.8977 130.629 17.3712 128.782 18.3182C126.935 19.2557 125.425 20.572 124.251 22.267C123.076 23.9527 122.305 25.9129 121.935 28.1477C121.566 30.3826 121.689 32.3475 122.305 34.0426C122.92 35.7282 123.99 37.0445 125.515 37.9915ZM134.194 32.9347C133.635 33.3797 133.015 33.6023 132.333 33.6023C131.651 33.6023 131.097 33.3797 130.671 32.9347C130.255 32.4896 129.98 31.8551 129.847 31.0312C129.724 30.2074 129.757 29.2273 129.947 28.0909C130.136 26.9451 130.43 25.965 130.827 25.1506C131.225 24.3267 131.708 23.6922 132.276 23.2472C132.844 22.8021 133.469 22.5795 134.151 22.5795C134.833 22.5795 135.382 22.8021 135.799 23.2472C136.216 23.6922 136.49 24.3267 136.623 25.1506C136.755 25.965 136.727 26.9451 136.538 28.0909C136.348 29.2273 136.05 30.2074 135.643 31.0312C135.245 31.8551 134.762 32.4896 134.194 32.9347ZM154.78 32.8156L153.754 39H145.913L150.742 9.90909H158.583L156.159 24.5114H156.424L162.958 17.1818H171.765L162.769 26.7487L168.356 39H159.379L156.2 31.3312L154.78 32.8156ZM181.42 17.1818H173.807L170.17 39H178.011L179.886 27.6364C180.038 26.803 180.341 26.0786 180.795 25.4631C181.259 24.8381 181.818 24.3551 182.472 24.0142C183.134 23.6638 183.845 23.4886 184.602 23.4886C185.028 23.4886 185.516 23.5218 186.065 23.5881C186.615 23.6449 187.074 23.7443 187.443 23.8864L188.58 17.1818C188.267 17.0966 187.95 17.0303 187.628 16.983C187.315 16.9261 186.989 16.8977 186.648 16.8977C185.483 16.8977 184.408 17.2528 183.423 17.9631C182.438 18.6733 181.619 19.7955 180.966 21.3295H180.739L181.42 17.1818ZM189.073 46.9688C189.859 47.1108 190.707 47.1818 191.616 47.1818C193.443 47.1818 195.015 46.9025 196.332 46.3438C197.648 45.785 198.756 45.0227 199.656 44.0568C200.565 43.1004 201.322 42.0208 201.928 40.8182L213.803 17.1818H205.281L199.173 32.2955H198.945L197.951 17.1818H190.053L193.945 39.9659L193.69 40.3636C193.434 40.7614 193.107 41.0312 192.71 41.1733C192.312 41.3153 191.853 41.3532 191.332 41.2869C190.82 41.2206 190.262 41.0739 189.656 40.8466L187.013 46.4148C187.601 46.6515 188.287 46.8362 189.073 46.9688ZM216.119 17.1818L211.09 47.1818H218.96L220.891 35.4205H221.062C221.232 36.1591 221.545 36.822 221.999 37.4091C222.454 37.9867 223.055 38.446 223.803 38.7869C224.551 39.1184 225.437 39.2841 226.46 39.2841C228.013 39.2841 229.504 38.8769 230.934 38.0625C232.373 37.2481 233.623 36.0123 234.684 34.3551C235.754 32.6979 236.497 30.6098 236.914 28.0909C237.35 25.4583 237.293 23.3182 236.744 21.6705C236.194 20.0227 235.337 18.8153 234.173 18.0483C233.008 17.2812 231.706 16.8977 230.266 16.8977C229.187 16.8977 228.202 17.0871 227.312 17.4659C226.431 17.8352 225.664 18.3324 225.011 18.9574C224.367 19.5729 223.846 20.25 223.448 20.9886H223.278L223.903 17.1818H216.119ZM221.928 30.8466C221.786 30.0701 221.8 29.1515 221.971 28.0909C222.141 27.0114 222.425 26.0881 222.823 25.321C223.23 24.5445 223.728 23.9527 224.315 23.5455C224.911 23.1288 225.569 22.9205 226.289 22.9205C227.009 22.9205 227.586 23.1288 228.022 23.5455C228.458 23.9527 228.746 24.5445 228.888 25.321C229.031 26.0881 229.016 27.0114 228.846 28.0909C228.656 29.1705 228.363 30.0985 227.965 30.875C227.567 31.642 227.085 32.2339 226.516 32.6506C225.948 33.0578 225.304 33.2614 224.585 33.2614C223.865 33.2614 223.278 33.053 222.823 32.6364C222.378 32.2102 222.08 31.6136 221.928 30.8466ZM254.055 22.8636L255.021 17.1818H251.256L252.124 11.9545H244.283L243.417 17.1818H240.646L239.68 22.8636H242.477L240.845 32.7216C240.561 34.2367 240.637 35.5009 241.072 36.5142C241.518 37.518 242.313 38.2566 243.459 38.7301C244.614 39.2036 246.11 39.3977 247.947 39.3125C248.828 39.2652 249.6 39.1657 250.263 39.0142C250.935 38.8722 251.47 38.7443 251.868 38.6307L251.641 33.1193C251.47 33.1477 251.219 33.1951 250.888 33.2614C250.556 33.3182 250.277 33.3466 250.05 33.3466C249.709 33.3466 249.434 33.2992 249.226 33.2045C249.027 33.1004 248.894 32.9489 248.828 32.75C248.762 32.5417 248.752 32.286 248.8 31.983L250.313 22.8636H254.055Z" fill="black"/>
</svg>
